<svg width="25" height="32" viewBox="0 0 25 32" fill="none" xmlns="http://www.w3.org/2000/svg">
<g clip-path="url(#clip0_1_55)">
<path d="M18.7042 3.55905C18.4711 4.48537 17.3202 8.83602 16.71 10.9314C19.3236 10.8599 20.9797 10.873 22.4261 10.9314C24.3102 11.0074 25.146 12.6347 24.083 14.2054C21.7969 17.5834 20.4375 19.4268 18.1226 22.1778C15.4868 25.3102 13.3689 27.7097 10.5456 29.9568C7.2291 32.5967 5.32696 29.6709 6.07872 27.317C6.55825 25.8155 7.60223 23.1293 8.40374 20.983C5.47609 21.1345 5.01096 21.2182 2.83869 21.053C0.153403 20.8489 0.0876817 18.7796 1.3257 17.048C2.83818 14.9325 5.06628 11.8668 7.71796 8.95998C10.5052 5.90446 13.463 2.93377 14.3422 2.15037C17.1725 -0.371419 19.1508 1.78383 18.7042 3.55905Z" fill="#7D0E2B"/>
<path d="M17.6075 3.61736C17.3757 4.54459 15.862 9.85903 15.2548 11.9564C16.9971 11.8524 20.233 11.8653 21.6704 11.9564C23.456 12.0696 23.312 13.5628 22.5367 14.6364C20.5596 17.3738 19.5961 18.8137 17.4264 21.3705C15.7242 23.3762 13.4226 25.9899 10.5897 28.6439C7.75681 31.2979 6.48009 29.4648 7.07649 27.5861C7.55361 26.0832 8.7784 21.9893 9.5759 19.8408C7.29187 20.0221 5.55716 20.1889 3.37686 20.0221C1.05621 19.8445 1.60304 18.2153 2.84221 16.4387C4.34258 14.2876 6.0091 12.2901 8.71648 9.23299C11.512 6.07636 14.5198 3.13447 15.4962 2.49971C17.4126 1.25389 17.8972 2.45831 17.6075 3.61736Z" fill="url(#paint0_linear_1_55)"/>
<path d="M13.6784 11.6982C13.4198 12.5314 13.5922 12.9337 14.3967 12.9625H20.2867C21.867 12.9625 21.4696 13.7908 21.2301 14.2095C20.5405 15.4151 17.7909 18.3932 16.3188 20.1558C14.1262 22.7811 11.5906 25.6123 9.49582 27.4657C8.62673 28.2346 7.86946 27.8828 8.22041 26.6223C8.75565 24.6998 9.86147 21.3146 10.3843 19.8774C10.9014 18.4563 10.0759 18.5277 8.87432 18.5959C7.7752 18.6582 6.25252 18.7777 4.56514 18.7277C3.46444 18.6951 3.08808 18.027 3.66272 17.0788C4.23735 16.1307 6.59289 12.4966 8.87342 10.0256C11.2035 7.50104 13.6782 4.80773 15.2492 3.7817C16.2781 3.10972 16.6547 3.25892 16.2812 4.09215C15.9076 4.92537 13.937 10.865 13.6784 11.6982Z" fill="url(#paint1_linear_1_55)"/>
<path d="M11.4952 9.24353C11.7983 9.76748 12.6729 9.44927 13.4986 8.7549C14.336 8.05062 14.4848 7.35126 14.3057 6.9814C14.1267 6.61153 13.1023 6.84993 12.2659 7.65462C11.6148 8.28105 11.4126 8.93529 11.4952 9.24353ZM12.9467 11.973C13.2006 11.1442 13.5243 10.2198 13.8911 9.50887C13.4024 9.85094 13.2193 9.90094 11.6773 10.193C10.2186 10.4693 8.7844 11.3399 7.969 12.4271C6.72374 14.0874 6.19089 15.05 5.90292 16.0348C5.49146 17.442 6.03564 17.732 7.6003 17.732C7.87811 17.732 8.41062 17.7157 8.99196 17.6979C9.69072 17.6766 10.4601 17.6531 10.9425 17.6531C11.3475 17.6531 11.9687 18.1793 11.6773 19.074C11.6773 19.074 12.2923 18.2665 13.9172 17.2171C14.432 16.8846 15.0172 16.6682 15.5808 16.4597C16.5273 16.1096 17.4128 15.7821 17.8004 14.9657C18.0582 14.4226 17.6668 13.785 17.123 13.785C16.9839 13.785 16.7771 13.7927 16.5222 13.8021C15.7809 13.8295 14.6329 13.872 13.5606 13.785C12.3394 13.686 12.6641 12.775 12.872 12.1917C12.9006 12.1117 12.9269 12.0378 12.9467 11.973ZM10.973 24.4815C10.2188 25.0431 10.068 24.4799 10.1564 23.8646C10.3643 22.4188 10.5686 21.5195 11.4056 20.4542C12.5102 19.0484 13.1184 18.5768 14.5127 18.1596C15.9928 17.7166 17.0518 17.8599 16.1388 19.2049C15.5092 20.1325 12.3084 23.4868 10.973 24.4815Z" fill="url(#paint2_linear_1_55)"/>
<path d="M10.5441 17.7443C9.44545 17.6736 7.79331 17.7628 7.13495 17.8227C8.1317 17.4839 10.6332 16.7089 12.4848 16.5263C14.3364 16.3436 14.0467 17.7234 13.6071 18.472C12.3691 20.5802 10.5441 23.2541 9.56664 24.5697C10.0754 23.159 10.7087 21.2906 11.2315 19.7624C11.4747 19.0515 11.4178 17.8005 10.5441 17.7443Z" fill="white"/>
</g>
<defs>
<linearGradient id="paint0_linear_1_55" x1="8.11799" y1="29.973" x2="16.851" y2="1.973" gradientUnits="userSpaceOnUse">
<stop offset="0.042" stop-color="#FFA800"/>
<stop offset="0.196" stop-color="#ED6700"/>
<stop offset="0.369" stop-color="#D2610A"/>
<stop offset="0.544" stop-color="#ED6700"/>
<stop offset="0.829" stop-color="#FF9800"/>
<stop offset="1" stop-color="#FFC700"/>
</linearGradient>
<linearGradient id="paint1_linear_1_55" x1="12.6" y1="3.013" x2="12.6" y2="27.775" gradientUnits="userSpaceOnUse">
<stop stop-color="#FFDE2E"/>
<stop offset="0.711" stop-color="#FFE853"/>
</linearGradient>
<linearGradient id="paint2_linear_1_55" x1="13.685" y1="3.993" x2="0.96699" y2="21.09" gradientUnits="userSpaceOnUse">
<stop offset="0.114" stop-color="#F1A104"/>
<stop offset="0.402" stop-color="#F87B08"/>
<stop offset="0.754" stop-color="#FFBD00"/>
</linearGradient>
<clipPath id="clip0_1_55">
<rect width="24" height="32" fill="white" transform="translate(0.549988)"/>
</clipPath>
</defs>
</svg>
